<?xml version="1.0" encoding="utf-8"?>
<!-- Uploaded to: SVG Repo, www.svgrepo.com, Generator: SVG Repo Mixer Tools -->
<svg width="800px" height="800px" viewBox="0 0 1024 1024" class="icon"  version="1.1" xmlns="http://www.w3.org/2000/svg"><path d="M910.2 838H172.9c-27.4 0-49.8-22.3-49.8-49.8V291.3c0-27.4 22.3-49.8 49.8-49.8h737.4c27.4 0 49.8 22.3 49.8 49.8v496.9c-0.1 27.5-22.4 49.8-49.9 49.8z" fill="#A7B8C6" /><path d="M272.6 199.6H118.9c-22.8 0-41.3 18.5-41.3 41.3v513.8c0 22.8 18.5 41.3 41.3 41.3h754.2c22.8 0 41.3-18.5 41.3-41.3V240.9c0-22.8-18.5-41.3-41.3-41.3H272.6z" fill="#75BFAB" /><path d="M726.8 786H265.2l108.6-587.6h244.4z" fill="#F9F5B1" /><path d="M508.1 194.9h12.1v323.7h-12.1z" fill="#DAD89D" /><path d="M746 602.8c-5.9 5.9-5.9 15.5 0 21.3 5.9 5.9 15.5 5.9 21.3 0l133.5-133.5v-42.7L746 602.8z" fill="#BCDACF" /><path d="M233.3 413.5c-5.9-5.9-15.5-5.9-21.3 0L91.8 533.7v42.7l141.5-141.5c5.8-5.9 5.8-15.5 0-21.4z" fill="#BCDACF" /><path d="M595.8 789.8H398.2l46.5-232.5h104.6z" fill="#EDE9AB" /><path d="M873.2 809.6H118.9C88.6 809.6 64 785 64 754.7V240.9c0-30.3 24.6-54.9 54.9-54.9h754.3c30.3 0 54.9 24.6 54.9 54.9v513.8c0 30.3-24.7 54.9-54.9 54.9zM118.9 213.1c-15.3 0-27.8 12.4-27.8 27.8v513.8c0 15.3 12.4 27.8 27.8 27.8h754.3c15.3 0 27.8-12.4 27.8-27.8V240.9c0-15.3-12.4-27.8-27.8-27.8H118.9z" fill="#3E3A39" /><path d="M489 194.9h14v323.7h-14z" fill="#3E3A39" /><path d="M547.5 557.5c0 28.2-22.8 51-51 51s-51-22.8-51-51c23.8-23.8 22.8-51 51-51 28.1 0 31.1 24.9 51 51z" fill="#595757" /><path d="M547.5 557.5H445.4L467 478c1.4-5.3 6.3-9 11.8-9h35.4c5.5 0 10.3 3.7 11.8 9l21.5 79.5z" fill="#B28146" /><path d="M465.61135 574.222738a13.1 7 46.414 1 0 18.063395 18.977717 13.1 7 46.414 1 0-18.063395-18.977717Z" fill="#888888" /></svg>